solid OpenSCAD_Model
  facet normal -1 0 0
    outer loop
      vertex 0 5 8
      vertex 0 7 8
      vertex 0 5 5
    endloop
  endfacet
  facet normal -1 0 0
    outer loop
      vertex 0 5 5
      vertex 0 7 8
      vertex 0 7 5
    endloop
  endfacet
  facet normal 0 0 1
    outer loop
      vertex 0 5 8
      vertex 1 5 8
      vertex 1 7 8
    endloop
  endfacet
  facet normal 0 0 1
    outer loop
      vertex 0 7 8
      vertex 0 5 8
      vertex 1 7 8
    endloop
  endfacet
  facet normal 0 -1 0
    outer loop
      vertex 0 5 5
      vertex 1 5 5
      vertex 1 5 8
    endloop
  endfacet
  facet normal 0 -1 0
    outer loop
      vertex 0 5 8
      vertex 0 5 5
      vertex 1 5 8
    endloop
  endfacet
  facet normal 0 0 -1
    outer loop
      vertex 0 7 5
      vertex 1 7 5
      vertex 0 5 5
    endloop
  endfacet
  facet normal 0 0 -1
    outer loop
      vertex 0 5 5
      vertex 1 7 5
      vertex 1 5 5
    endloop
  endfacet
  facet normal 0 1 0
    outer loop
      vertex 0 7 8
      vertex 1 7 8
      vertex 0 7 5
    endloop
  endfacet
  facet normal 0 1 0
    outer loop
      vertex 0 7 5
      vertex 1 7 8
      vertex 1 7 5
    endloop
  endfacet
  facet normal 1 0 0
    outer loop
      vertex 1 5 5
      vertex 1 7 5
      vertex 1 7 8
    endloop
  endfacet
  facet normal 1 0 0
    outer loop
      vertex 1 5 8
      vertex 1 5 5
      vertex 1 7 8
    endloop
  endfacet
endsolid OpenSCAD_Model
